<?xml version="1.0" encoding="utf-8"?>
<!-- Generator: Adobe Illustrator 19.0.0, SVG Export Plug-In . SVG Version: 6.00 Build 0)  -->
<svg version="1.1" id="Layer_1" xmlns="http://www.w3.org/2000/svg" xmlns:xlink="http://www.w3.org/1999/xlink" x="0px" y="0px"
	 viewBox="0 0 100 48.1" style="enable-background:new 0 0 100 48.1;" xml:space="preserve">
<g id="XMLID_46_">
	<g id="XMLID_69_">
		<path id="XMLID_83_" d="M33.3,48.1H1.5c-1.3,0-2-1.5-1.2-2.5L35.8,0.6c0.6-0.8,1.8-0.8,2.4,0l13.4,17c0,0,0,0.1,0,0.1l-20.5,26
			c-0.7,0.8-0.8,1.9-0.3,2.9S32.2,48.1,33.3,48.1z"/>
		<g id="XMLID_71_">
			<path id="XMLID_77_" d="M99.4,44.3L69.9,6.8c-0.5-0.6-1.1-0.9-1.9-0.9s-1.4,0.3-1.9,0.9L54.6,21.5l-18,22.8
				C36,45.1,36,46.1,36.5,47c0.4,0.8,1.3,1.2,2.2,1.2l58.7,0c0.8,0,1.5-0.3,2-0.9C100.1,46.3,100.1,45.2,99.4,44.3z M97.7,45.8
				c0,0.1-0.1,0.1-0.1,0.1H73.9c0,0,0,0-0.1,0L56.1,23.3c0,0,0-0.1,0-0.1l11.8-15c0,0,0.1-0.1,0.1-0.1c0.1,0,0.1,0,0.1,0.1
				l29.5,37.5C97.7,45.7,97.7,45.8,97.7,45.8z"/>
		</g>
	</g>
	<path id="XMLID_47_" d="M80.9,54.4"/>
</g>
</svg>
